<?xml version="1.0" encoding="UTF-8"?>
<svg version="1.1" xmlns="http://www.w3.org/2000/svg" width="492" height="568">

<path d="M0 0 C1.32136963 0.20085205 1.32136963 0.20085205 2.66943359 0.40576172 C16.41756226 2.56824144 29.11603738 6.80247864 42 12 C43.19520264 12.47977295 43.19520264 12.47977295 44.41455078 12.96923828 C68.76814731 22.89718 90.50775566 37.4488438 110 55 C110.5455957 55.48919922 111.09119141 55.97839844 111.65332031 56.48242188 C115.13913966 59.61653766 118.58213842 62.79191735 122 66 C122.98226562 66.91845703 122.98226562 66.91845703 123.984375 67.85546875 C129.13622465 72.83007587 133.58040274 78.37575557 138 84 C138.66 84.83144531 139.32 85.66289063 140 86.51953125 C150.46502988 100.25488297 157.91904179 115.5467128 163 132 C163.22445801 132.69480469 163.44891602 133.38960937 163.68017578 134.10546875 C172.42824425 162.30338708 168.77909349 197.79376007 156 224 C153.30162672 222.65081336 153.13346393 221.34769827 152.00390625 218.57421875 C151.61605957 217.64230713 151.22821289 216.71039551 150.82861328 215.75024414 C150.4107959 214.73953857 149.99297852 213.72883301 149.5625 212.6875 C142.01749392 194.96624622 133.15617703 178.96391347 121 164 C120.51998535 163.40574219 120.0399707 162.81148437 119.54541016 162.19921875 C89.59137395 125.35156698 44.90552865 100.04492031 -2.48388672 94.72094727 C-53.14535811 89.64385221 -103.81861207 104.78998024 -143.35546875 136.8984375 C-176.9790606 165.02263138 -198.03593789 207.56238773 -202.5859375 251.03515625 C-205.97367386 292.49063662 -197.59846104 332.39775028 -187.75 372.4375 C-187.04263465 375.3717387 -186.34179017 378.3073059 -185.64941406 381.24511719 C-185.22591047 383.04166401 -184.79587677 384.83668776 -184.35839844 386.62988281 C-178.43690731 411.58272735 -177.51253427 442.30176235 -185 467 C-185.20367187 467.73653809 -185.40734375 468.47307617 -185.6171875 469.23193359 C-190.55383789 487.0168261 -199.08415174 502.93732949 -211 517 C-211.99966797 518.22589844 -211.99966797 518.22589844 -213.01953125 519.4765625 C-221.05161342 528.99727904 -231.29312115 536.6927375 -242 543 C-242.66 543 -243.32 543 -244 543 C-242.51734864 538.78614877 -240.38176054 535.43589877 -237.875 531.75 C-230.23388834 520.16007377 -224.30909687 507.51487584 -221 494 C-220.82557373 493.30374512 -220.65114746 492.60749023 -220.47143555 491.89013672 C-213.80732092 462.65152015 -222.05015347 431.77647192 -231 404 C-231.3192041 403.00661621 -231.6384082 402.01323242 -231.96728516 400.98974609 C-237.00466533 385.51477504 -242.89991008 370.41790682 -249.03930664 355.35424805 C-252.19268349 347.60636583 -255.17658357 339.8457 -257.93823242 331.94775391 C-258.74162306 329.71732426 -259.64670036 327.52318305 -260.59765625 325.3515625 C-262.63692104 320.47777646 -264.02125479 315.45984628 -265.4375 310.375 C-265.74389404 309.27776611 -266.05028809 308.18053223 -266.3659668 307.05004883 C-268.97104227 297.50545468 -270.97314157 287.91933574 -272.62988281 278.16943359 C-272.95343777 276.27292349 -273.29909346 274.38021073 -273.6484375 272.48828125 C-284.27163134 213.59883713 -266.09215666 148.66698646 -232.36132812 99.92382812 C-228.7387005 94.80433284 -224.96755601 89.86041331 -221 85 C-219.79537109 83.48986328 -219.79537109 83.48986328 -218.56640625 81.94921875 C-206.75746155 67.38211372 -193.28108032 53.89746662 -178 43 C-177.36787598 42.53996582 -176.73575195 42.07993164 -176.08447266 41.60595703 C-145.76681449 19.7160312 -109.08650377 4.39980937 -72 -1 C-70.97084473 -1.1544458 -70.97084473 -1.1544458 -69.92089844 -1.31201172 C-46.66481702 -4.65923763 -23.14394176 -3.64013049 0 0 Z " fill="#7B1E26" transform="translate(290,12)"/>
<path d="M0 0 C0.33 0 0.66 0 1 0 C1.03963867 0.59200195 1.07927734 1.18400391 1.12011719 1.79394531 C2.82859334 26.28839618 5.27103998 52.22391199 23 71 C23.78761719 71.8765625 24.57523438 72.753125 25.38671875 73.65625 C44.79940899 94.28754707 71.42149044 100.87640037 98.37255859 105.95617676 C103.30033059 106.88750309 108.22041013 107.85778503 113.140625 108.828125 C114.5708197 109.10967438 114.5708197 109.10967438 116.02990723 109.39691162 C143.5008562 114.84205257 174.77233369 121.65431587 192 146 C200.38100839 160.27848045 203.18409846 172.43307421 198.97680664 188.78320312 C194.81182059 203.39621542 186.40914119 215.28020688 177 227 C172.15362097 226.52806796 169.10181495 224.14306662 165.375 221.25 C164.05397147 220.25529996 162.7309532 219.26323848 161.40625 218.2734375 C160.70113281 217.74588867 159.99601563 217.21833984 159.26953125 216.67480469 C155.19102948 213.66506694 151.04109205 210.76175361 146.875 207.875 C146.06981934 207.3068457 145.26463867 206.73869141 144.43505859 206.15332031 C143.67016113 205.62577148 142.90526367 205.09822266 142.1171875 204.5546875 C141.44284668 204.08530762 140.76850586 203.61592773 140.07373047 203.13232422 C136.48556501 201.17306929 133.99056105 200.79169624 129.97216797 201.63671875 C128.86502441 201.98347656 127.75788086 202.33023438 126.6171875 202.6875 C124.7623877 203.25017578 124.7623877 203.25017578 122.87011719 203.82421875 C122.23037964 204.02063965 121.59064209 204.21706055 120.93151855 204.41943359 C117.8495736 205.34578954 114.74210237 206.17085603 111.6328125 207 C109.7909436 207.49209961 109.7909436 207.49209961 107.91186523 207.99414062 C106.03736694 208.49204102 106.03736694 208.49204102 104.125 209 C103.47379181 209.17297607 102.82258362 209.34595215 102.15164185 209.52416992 C97.76900634 210.68751721 93.38478363 211.8447722 89 213 C88.05979004 213.24878906 87.11958008 213.49757813 86.15087891 213.75390625 C83.91488775 214.34323041 81.67699886 214.9241756 79.4375 215.5 C78.28121094 215.7990625 77.12492187 216.098125 75.93359375 216.40625 C73.04971824 216.98993719 70.91658334 217.37606052 68 217 C66.24584961 215.08251953 66.24584961 215.08251953 64.65234375 212.3828125 C63.75370605 210.8970874 63.75370605 210.8970874 62.83691406 209.38134766 C61.8967041 207.76945557 61.8967041 207.76945557 60.9375 206.125 C59.59998035 203.9048482 58.26011391 201.68610861 56.91796875 199.46875 C55.92482666 197.81552734 55.92482666 197.81552734 54.91162109 196.12890625 C52.3128686 191.87531596 49.55354633 187.74526496 46.75 183.625 C31.26079131 160.61518317 18.67298846 137.42824215 10 111 C9.73993164 110.22736816 9.47986328 109.45473633 9.21191406 108.65869141 C-1.49219867 76.61316112 -8.41465777 35.44714237 -1 2 C-0.67 1.34 -0.34 0.68 0 0 Z " fill="#7B1E26" transform="translate(131,248)"/>
<path d="M0 0 C1.09731445 0.00572021 2.19462891 0.01144043 3.32519531 0.01733398 C27.91106334 0.55377263 48.90620718 14.97552113 65.55859375 32.24609375 C67.38898492 34.28717743 69.13454242 36.38147824 70.875 38.5 C71.30151855 39.00885742 71.72803711 39.51771484 72.16748047 40.04199219 C88.14424013 59.13951266 115.875 93.83137226 115.875 119.5 C114.15234375 121.11328125 114.15234375 121.11328125 111.8125 122.8125 C108.74304516 125.06888608 105.93137997 127.36070738 103.1875 130 C100.86406033 131.97412984 100.25398393 132.47416019 97.125 132.6875 C93.29043313 131.28640826 89.66322975 129.55724756 85.96875 127.82421875 C81.0949978 125.73810512 76.0717655 124.41600317 70.95657349 123.05885315 C68.88924241 122.50382375 66.82773716 121.93046015 64.76635742 121.35375977 C52.5170115 117.9730519 40.20435911 115.58851507 27.6875 113.4375 C-33.16925249 102.9237467 -33.16925249 102.9237467 -49.8125 80.875 C-58.20223232 67.98252143 -59.87732068 55.65294682 -58.125 40.5 C-55.218671 28.15770415 -46.06120987 17.13530946 -35.41845703 10.42382812 C-33.52761642 9.30517631 -31.61829425 8.2356108 -29.6875 7.1875 C-29.09130859 6.86193115 -28.49511719 6.5363623 -27.88085938 6.20092773 C-18.81048233 1.50586039 -10.17084746 -0.06190269 0 0 Z " fill="#7B1E26" transform="translate(220.125,181.5)"/>
<path d="M0 0 C1.43013428 0.18175781 1.43013428 0.18175781 2.88916016 0.3671875 C10.15870514 1.28602594 17.43039322 2.17261402 24.7109375 3 C26.87280209 3.24930752 29.03456481 3.49947876 31.19628906 3.75 C32.67350511 3.91950574 34.15106001 4.08607945 35.62890625 4.25 C37.80308797 4.49199588 39.9757587 4.74490803 42.1484375 5 C43.41864746 5.144375 44.68885742 5.28875 45.99755859 5.4375 C49 6 49 6 51 8 C51.27124023 10.94116211 51.27124023 10.94116211 51.30859375 14.77734375 C51.33149852 16.23324025 51.35470726 17.68913198 51.37817383 19.14501953 C51.38732819 19.92315002 51.39648254 20.70128052 51.40591431 21.50299072 C52.06010237 71.92540474 57.81950013 121.56152967 67.5625 170.9921875 C67.79654541 172.18126709 68.03059082 173.37034668 68.27172852 174.59545898 C68.69741908 176.73234131 69.13194988 178.86749378 69.57788086 181.00024414 C70.74939251 186.79108646 71.20004096 192.08969882 71 198 C64.56589416 198.37204013 60.02963622 197.30270562 54.125 194.8125 C53.27276855 194.46082764 52.42053711 194.10915527 51.54248047 193.74682617 C25.15469594 182.60127919 0.58708607 168.16152194 -23 152 C-22.13959513 147.26586965 -19.13907852 144.97904967 -15.75 141.8125 C-3.39016895 129.80935565 6.05115302 116.75991598 13 101 C13.40605469 100.11054688 13.81210937 99.22109375 14.23046875 98.3046875 C15.26796903 95.8957788 16.15594066 93.48319243 17 91 C17.37125 89.95457031 17.7425 88.90914063 18.125 87.83203125 C25.66773965 63.81573867 20.05256111 38.93573431 9 17 C6.71029952 12.84099129 4.24139267 8.80929788 1.6875 4.80859375 C0 2 0 2 0 0 Z " fill="#7B1E26" transform="translate(349,338)"/>
<path d="M0 0 C4.84340515 1.35351957 8.60320026 3.49514927 12.625 6.4375 C13.52980103 7.09141724 13.52980103 7.09141724 14.45288086 7.75854492 C22.63212384 13.79037497 29.82352663 20.82352663 37 28 C37.62261719 28.57621094 38.24523437 29.15242188 38.88671875 29.74609375 C56.89198927 46.65776866 67.93607475 71.01168081 73.98046875 94.59375 C75.3564553 99.1909158 77.18272681 103.56242476 79 108 C79.67092457 109.69465871 80.3401935 111.38997382 81.0078125 113.0859375 C91.03934183 138.28553702 103.68285921 161.32261768 119.70703125 183.21972656 C122.22050776 186.68050275 124.67771943 190.17973119 127.125 193.6875 C127.6111377 194.37175049 128.09727539 195.05600098 128.59814453 195.76098633 C132 200.65539201 132 200.65539201 132 204 C126.45614071 204.1937061 121.48498318 203.48851253 116.06640625 202.35546875 C114.81125465 202.09978874 114.81125465 202.09978874 113.53074646 201.83894348 C111.76939656 201.47827806 110.00874673 201.11417843 108.2487793 200.74682617 C105.57601007 200.19031301 102.90061509 199.64813092 100.22460938 199.10742188 C98.50503151 198.75346213 96.78562441 198.39867155 95.06640625 198.04296875 C93.88166466 197.80370918 93.88166466 197.80370918 92.67298889 197.55961609 C79.85323615 194.85323615 79.85323615 194.85323615 77 192 C76.8896503 189.92006964 76.84400306 187.83666786 76.82421875 185.75390625 C76.44762169 162.12900923 75.82060669 139.17265718 58.38671875 121.1171875 C47.73971356 111.6725446 34.16332175 106.87753914 20.125 106.4375 C18.41912076 106.377845 16.71337273 106.31426269 15.0078125 106.24609375 C13.88850342 106.21020142 13.88850342 106.21020142 12.74658203 106.17358398 C11 106 11 106 10 105 C9.67636199 102.57634188 9.41212141 100.16982329 9.18383789 97.73657227 C9.07139488 96.59466431 9.07139488 96.59466431 8.9566803 95.4296875 C8.70784669 92.89231413 8.46530519 90.35437791 8.22265625 87.81640625 C8.04993733 86.04487554 7.87678948 84.2733866 7.70323181 82.50193787 C7.24477739 77.81232882 6.79146886 73.12223681 6.3394165 68.43200684 C5.6208567 60.98603575 4.89425302 53.54084483 4.16827202 46.09559441 C3.91763782 43.51833879 3.66896026 40.94090089 3.42066956 38.36341858 C3.2625592 36.72996539 3.10419274 35.09653698 2.94555664 33.46313477 C2.86929582 32.67734323 2.79303499 31.89155169 2.71446323 31.08194828 C2.31796174 27.05043875 1.89594525 23.02332659 1.43624878 18.99850464 C1.34346618 18.18608024 1.25068357 17.37365583 1.15508938 16.53661251 C0.97800204 15.00319464 0.7978326 13.47012808 0.61390018 11.93751621 C0.14907284 7.934275 -0.08907109 4.02968269 0 0 Z " fill="#7B1E26" transform="translate(348,189)"/>
<path d="M0 0 C0.66 0 1.32 0 2 0 C2.14695313 1.13695312 2.29390625 2.27390625 2.4453125 3.4453125 C4.97363883 21.45718767 10.89842747 37.09458207 25.625 48.8125 C45.30005991 62.50594622 68.69780656 66.0492167 91.75634766 70.45184326 C173.29865053 86.03026735 173.29865053 86.03026735 195.12890625 116.953125 C202.55645166 129.04808412 205.91816185 142.49192603 203.3125 156.5625 C202.02745617 161.74019483 199.54728705 166.34293703 197 171 C196.18569833 168.16370868 195.89892633 165.71509105 195.97265625 162.76953125 C195.98490234 161.96580078 195.99714844 161.16207031 196.00976562 160.33398438 C196.0445154 158.67243025 196.08347612 157.01095805 196.12695312 155.34960938 C196.33678676 139.83426327 189.56801485 124.88184892 179.33203125 113.35546875 C167.01621234 100.91587276 151.9496237 94.96197626 135.3046875 90.59375 C134.49321259 90.38077271 133.68173767 90.16779541 132.84567261 89.94836426 C123.01754236 87.42255711 113.07722054 85.46542019 103.125 83.5 C91.94210974 81.28302386 80.78088519 79.01937414 69.68359375 76.40234375 C68.84341705 76.20592285 68.00324036 76.00950195 67.13760376 75.80712891 C45.08217312 70.51459899 21.73505824 61.25277217 9.25 41.1875 C3.356721 30.10813547 -0.2179361 17.65282408 -0.0625 5.0625 C-0.05347656 4.10472656 -0.04445312 3.14695312 -0.03515625 2.16015625 C-0.02355469 1.44730469 -0.01195312 0.73445313 0 0 Z " fill="#7B1E26" transform="translate(146,263)"/>
<path d="M0 0 C1.368454 9.87480371 2.55386569 19.74694833 3.54296875 29.66796875 C3.67700955 31.00458451 3.81106857 32.34119845 3.94514465 33.67781067 C4.22176288 36.44298029 4.49616193 39.20836027 4.76928711 41.97387695 C5.11926507 45.5127373 5.4780887 49.05064459 5.83884716 52.58841991 C6.18378145 55.98933941 6.51898363 59.39120301 6.85546875 62.79296875 C7.05066353 64.69286812 7.05066353 64.69286812 7.24980164 66.63114929 C7.3635463 67.80369766 7.47729095 68.97624603 7.59448242 70.18432617 C7.74864876 71.72862556 7.74864876 71.72862556 7.90592957 73.30412292 C7.99313333 75.8032146 7.75915358 77.63513372 7 80 C6.69408936 79.47792969 6.38817871 78.95585937 6.07299805 78.41796875 C-7.9867054 54.50259904 -23.13441439 34.3770876 -43 15 C-39.41541842 13.08993564 -36.27469774 12.45593344 -32.25 11.8125 C-22.68256433 10.10190807 -13.49335129 6.40433038 -5.2265625 1.28125 C-3 0 -3 0 0 0 Z " fill="#7B1E26" transform="translate(328,181)"/>
<path d="M0 0 C0 0.99 0 1.98 0 3 C-10.31142534 5.41060667 -19.99625986 6.54746425 -30.625 6.5 C-31.65601334 6.50034744 -31.65601334 6.50034744 -32.70785522 6.5007019 C-46.10643231 6.46987919 -58.29048515 4.23650495 -71 0 C-71 -0.66 -71 -1.32 -71 -2 C-69.31409158 -2.48473678 -67.62617455 -2.96248926 -65.9375 -3.4375 C-64.99777344 -3.70433594 -64.05804688 -3.97117188 -63.08984375 -4.24609375 C-43.0872002 -9.12663762 -19.32308441 -6.84561533 0 0 Z " fill="#7B1E26" transform="translate(306,169)"/>
<path d="M0 0 C3.27539262 1.09179754 3.61075567 1.48294326 5.41796875 4.2109375 C5.86422607 4.87416016 6.3104834 5.53738281 6.77026367 6.22070312 C7.23795166 6.93162109 7.70563965 7.64253906 8.1875 8.375 C9.16544573 9.83154966 10.14462098 11.28727453 11.125 12.7421875 C11.60839844 13.46245117 12.09179688 14.18271484 12.58984375 14.92480469 C15.60885306 19.36759885 18.80679515 23.68139631 22 28 C19.19305831 30.80694169 15.93481896 31.22404175 12.1875 32.125 C11.47529297 32.30675781 10.76308594 32.48851562 10.02929688 32.67578125 C6.28654084 33.59675545 2.85751578 34.22735849 -1 34 C-1.11033706 22.61076383 -0.95043457 11.35429868 0 0 Z " fill="#F2F2F2" transform="translate(144,440)"/>
<path d="M0 0 C0.66 0 1.32 0 2 0 C2.20496094 1.24136719 2.40992188 2.48273438 2.62109375 3.76171875 C2.89318572 5.40365303 3.16532355 7.04557972 3.4375 8.6875 C3.57220703 9.50412109 3.70691406 10.32074219 3.84570312 11.16210938 C3.97783203 11.95810547 4.10996094 12.75410156 4.24609375 13.57421875 C4.37097168 14.34556152 4.49584961 15.1169043 4.62451172 15.91162109 C4.99587277 18.15065562 4.99587277 18.15065562 5.78515625 20.89453125 C6 23 6 23 4.5625 24.8125 C4.046875 25.204375 3.53125 25.59625 3 26 C1.01281019 17.2350735 -0.50803456 9.05054166 0 0 Z " fill="#7B1E26" transform="translate(146,263)"/>
<path d="M0 0 C0.33 0 0.66 0 1 0 C1.24858198 2.77034137 1.47452879 5.53939069 1.6875 8.3125 C1.76033203 9.09818359 1.83316406 9.88386719 1.90820312 10.69335938 C1.96298828 11.45068359 2.01777344 12.20800781 2.07421875 12.98828125 C2.13182373 13.68477783 2.18942871 14.38127441 2.2487793 15.09887695 C2 17 2 17 -1 20 C-0.67 13.4 -0.34 6.8 0 0 Z " fill="#7B1E26" transform="translate(343,414)"/>
</svg>
